<svg width="732" height="724" viewBox="0 0 732 724" fill="none" xmlns="http://www.w3.org/2000/svg">
<g clip-path="url(#clip0_32_1104)">
<mask id="mask0_32_1104" style="mask-type:luminance" maskUnits="userSpaceOnUse" x="0" y="0" width="732" height="724">
<path d="M732 0H0V724H732V0Z" fill="white"/>
</mask>
<g mask="url(#mask0_32_1104)">
<path d="M598.606 124.293L592.729 117.03L588.672 119.661C586.193 117.632 583.389 116.136 580.431 115.18L580.507 110.361L571.17 109.323L570.187 114.043C567.091 114.327 564.027 115.167 561.162 116.606L557.782 113.148L550.454 118.945L553.124 122.967C551.077 125.414 549.574 128.185 548.615 131.108L543.743 131.021L542.717 140.257L547.488 141.24C547.783 144.304 548.642 147.338 550.101 150.175L546.614 153.511L552.491 160.774L556.547 158.142C559.028 160.173 561.832 161.668 564.79 162.625L564.713 167.443L574.051 168.481L575.036 163.763C578.13 163.478 581.194 162.635 584.058 161.199L587.44 164.656L594.767 158.859L592.097 154.84C594.144 152.39 595.647 149.62 596.608 146.697L601.479 146.783L602.504 137.548L597.733 136.564C597.438 133.5 596.578 130.467 595.119 127.629L598.606 124.293ZM580.565 148.734C575.087 153.068 567.084 152.18 562.69 146.75C558.297 141.32 559.177 133.404 564.655 129.071C570.134 124.736 578.137 125.625 582.53 131.055C586.923 136.485 586.044 144.4 580.565 148.734Z" fill="#4CAF50" fill-opacity="0.15"/>
<path d="M554.05 165.415C551.805 164.287 549.405 163.629 546.978 163.404L546.207 159.709L538.892 160.521L538.951 164.298C536.634 165.047 534.434 166.218 532.492 167.809L529.313 165.747L524.708 171.438L527.44 174.053C526.296 176.276 525.625 178.654 525.393 181.054L521.654 181.826L522.458 189.062L526.274 188.993C527.028 191.285 528.205 193.456 529.809 195.375L527.717 198.526L533.458 203.068L536.107 200.357C538.353 201.484 540.754 202.143 543.179 202.367L543.949 206.064L551.266 205.252L551.207 201.476C553.524 200.725 555.722 199.555 557.665 197.963L560.845 200.026L565.45 194.335L562.717 191.72C563.86 189.496 564.533 187.118 564.765 184.719L568.504 183.947L567.699 176.711L563.884 176.778C563.131 174.487 561.953 172.316 560.347 170.397L562.441 167.247L556.699 162.705L554.05 165.415ZM552.851 189.035C549.408 193.29 543.137 193.987 538.844 190.591C534.552 187.196 533.863 180.992 537.306 176.738C540.749 172.483 547.021 171.786 551.312 175.181C555.605 178.577 556.293 184.78 552.851 189.035Z" fill="#4CAF50" fill-opacity="0.15"/>
<path d="M507.795 143.767L504.589 143.709L503.915 149.788L507.055 150.435C507.249 152.452 507.815 154.449 508.775 156.316L506.48 158.513L510.346 163.292L513.018 161.559C514.65 162.896 516.495 163.88 518.443 164.51L518.392 167.681L524.538 168.365L525.185 165.259C527.222 165.072 529.24 164.517 531.126 163.571L533.351 165.848L538.173 162.031L536.415 159.386C537.764 157.775 538.752 155.95 539.384 154.026L542.591 154.083L543.265 148.004L540.124 147.358C539.93 145.341 539.364 143.345 538.403 141.477L540.699 139.28L536.833 134.501L534.161 136.234C532.53 134.898 530.684 133.913 528.736 133.283L528.788 130.111L522.642 129.427L521.994 132.533C519.957 132.721 517.94 133.275 516.054 134.221L513.83 131.945L509.007 135.761L510.766 138.407C509.417 140.018 508.427 141.842 507.795 143.767ZM530.118 143.732C533.01 147.306 532.431 152.515 528.825 155.368C525.22 158.22 519.953 157.636 517.061 154.061C514.169 150.488 514.748 145.278 518.353 142.426C521.959 139.573 527.227 140.158 530.118 143.732Z" fill="#4CAF50" fill-opacity="0.15"/>
<path d="M619.401 440.04H531.596V383.556H619.401V440.04Z" fill="#4CAF50" fill-opacity="0.8"/>
<path d="M616.19 437.216H534.809V394.147H616.19V437.216Z" fill="#FEFEFE"/>
<path d="M601.64 402.434H541.443V400.58H601.64V402.434Z" fill="#4CAF50" fill-opacity="0.8"/>
<path d="M570.325 408.109H541.44V406.255H570.325V408.109Z" fill="#4CAF50" fill-opacity="0.8"/>
<path d="M577.82 413.783H541.443V411.93H577.82V413.783Z" fill="#4CAF50" fill-opacity="0.8"/>
<path d="M554.262 419.458H541.443V417.605H554.262V419.458Z" fill="#4CAF50" fill-opacity="0.8"/>
<path d="M549.744 425.131H541.443V423.278H549.744V425.131Z" fill="#4CAF50" fill-opacity="0.8"/>
<path d="M169.252 431.919L106.775 432.2L106.599 394.086L169.077 393.805L169.252 431.919Z" fill="#4CAF50" fill-opacity="0.6"/>
<path d="M130.568 422.617C130.3 422.617 130.03 422.536 129.797 422.368L118.396 414.132C118.061 413.888 117.863 413.503 117.86 413.092C117.859 412.681 118.055 412.294 118.387 412.049L129.711 403.71C130.291 403.283 131.111 403.403 131.541 403.975C131.971 404.547 131.853 405.36 131.273 405.785L121.371 413.076L131.341 420.28C131.923 420.701 132.051 421.509 131.626 422.087C131.368 422.433 130.972 422.617 130.568 422.617Z" fill="#FBFCFC"/>
<path d="M145.361 422.55C144.963 422.55 144.566 422.371 144.31 422.03C143.878 421.456 143.998 420.646 144.578 420.22L154.479 412.927L144.512 405.726C143.929 405.303 143.802 404.495 144.228 403.917C144.654 403.34 145.472 403.214 146.055 403.635L157.454 411.873C157.789 412.115 157.987 412.501 157.988 412.911C157.991 413.321 157.798 413.709 157.464 413.954L146.14 422.293C145.906 422.466 145.634 422.55 145.361 422.55Z" fill="#FBFCFC"/>
<path d="M134.989 422.597C134.845 422.597 134.7 422.573 134.557 422.524C133.875 422.288 133.516 421.55 133.755 420.876L139.627 404.272C139.865 403.599 140.611 403.243 141.293 403.479C141.975 403.715 142.335 404.452 142.095 405.126L136.223 421.729C136.034 422.264 135.529 422.597 134.989 422.597Z" fill="#FBFCFC"/>
<path d="M625.293 509.915C625.293 518.002 511.784 524.558 371.761 524.558C231.74 524.558 118.228 518.002 118.228 509.915C118.228 501.826 231.74 495.269 371.761 495.269C511.784 495.269 625.293 501.826 625.293 509.915Z" fill="#C7E1FF"/>
<path d="M298.993 508.989H211.188V452.503H298.993V508.989Z" fill="#4057A5"/>
<path d="M298.993 508.989H211.188V452.503H298.993V508.989Z" fill="#C7E1FF"/>
<path d="M295.781 506.164H214.4V463.095H295.781V506.164Z" fill="#4CAF50" fill-opacity="0.85"/>
<path d="M281.231 471.383H221.032V469.531H281.231V471.383Z" fill="white"/>
<path d="M249.916 477.058H221.032V475.206H249.916V477.058Z" fill="#FEFEFE"/>
<path d="M257.409 482.732H221.032V480.878H257.409V482.732Z" fill="#FEFEFE"/>
<path d="M233.853 488.406H221.032V486.554H233.853V488.406Z" fill="white"/>
<path d="M229.336 494.079H221.032V492.227H229.336V494.079Z" fill="#FEFEFE"/>
<path d="M407.502 509.916H336.019L348.123 415.932H395.397L407.502 509.916Z" fill="#4057A5"/>
<path d="M407.497 509.917H336.02L344.302 445.619L348.125 415.932H395.391L401.034 459.727L407.497 509.917Z" fill="#001A41"/>
<path d="M401.033 459.727L344.303 445.619L348.125 415.932H395.391L401.033 459.727Z" fill="#060505" fill-opacity="0.1"/>
<path d="M540.266 184.184H533.123H210.394H203.25C198.488 184.184 194.626 188.004 194.626 192.716V418.375C194.626 423.085 198.488 426.907 203.25 426.907H210.394H533.123H540.266C545.03 426.907 548.892 423.085 548.892 418.375V192.716C548.892 188.004 545.03 184.184 540.266 184.184Z" fill="#4057A5"/>
<path d="M540.266 184.184H533.123H210.394H203.25C198.488 184.184 194.626 188.004 194.626 192.716V418.375C194.626 423.085 198.488 426.907 203.25 426.907H210.394H533.123H540.266C545.03 426.907 548.892 423.085 548.892 418.375V192.716C548.892 188.004 545.03 184.184 540.266 184.184Z" fill="#001A41"/>
<path d="M537.549 410.139H205.976V192.536H537.549V410.139Z" fill="#C7E1FF"/>
<path d="M431.628 502.854H311.892C311.053 502.854 310.374 503.526 310.374 504.354V508.302C310.374 509.13 311.052 509.802 311.889 509.802H431.628C432.466 509.802 433.145 509.13 433.145 508.302V504.354C433.145 503.526 432.466 502.854 431.628 502.854Z" fill="#4057A5"/>
<path d="M431.628 502.854H311.892C311.053 502.854 310.374 503.526 310.374 504.354V508.302C310.374 509.13 311.052 509.802 311.889 509.802H431.628C432.466 509.802 433.145 509.13 433.145 508.302V504.354C433.145 503.526 432.466 502.854 431.628 502.854Z" fill="#001A41"/>
<path d="M537.549 225.177H205.976V192.745H537.549V225.177Z" fill="#060505" fill-opacity="0.2"/>
<path d="M205.976 410.139H348.065V225.562H205.976V410.139ZM0 0H732V724H0V0ZM0 724H732V0H0V724Z" fill="#FEFEFE" fill-opacity="0.4"/>
<path d="M474.963 241.706H445.216C443.686 241.706 442.443 240.478 442.443 238.963V231.532C442.443 230.018 443.684 228.791 445.216 228.791H474.963C476.494 228.791 477.736 230.019 477.736 231.532V238.963C477.736 240.478 476.494 241.706 474.963 241.706Z" fill="#FEFEFE" fill-opacity="0.7"/>
<path d="M422.657 241.706H392.911C391.38 241.706 390.138 240.478 390.138 238.963V231.532C390.138 230.018 391.38 228.791 392.911 228.791H422.657C424.188 228.791 425.43 230.019 425.43 231.532V238.963C425.43 240.478 424.188 241.706 422.657 241.706Z" fill="#FEFEFE" fill-opacity="0.7"/>
<path d="M355.317 398.959H325.57C324.039 398.959 322.799 397.731 322.799 396.216V388.787C322.799 387.272 324.039 386.044 325.57 386.044H355.317C356.849 386.044 358.09 387.272 358.09 388.787V396.216C358.09 397.731 356.849 398.959 355.317 398.959Z" fill="#FEFEFE" fill-opacity="0.7"/>
<path d="M515.669 204.276H526.705" stroke="#FEFEFE" stroke-width="2.196" stroke-linecap="round" stroke-linejoin="round"/>
<path d="M515.669 209.45H526.705" stroke="#FEFEFE" stroke-width="2.196" stroke-linecap="round" stroke-linejoin="round"/>
<path d="M515.669 214.624H526.705" stroke="#FEFEFE" stroke-width="2.196" stroke-linecap="round" stroke-linejoin="round"/>
<path d="M228.454 364.173H339.671V254.173H228.454V364.173ZM0 0H732V724H0V0ZM0 724H732V0H0V724Z" fill="#FEFEFE" fill-opacity="0.5"/>
<path d="M459.276 387.607H425.61C420.235 387.607 415.88 383.297 415.88 377.983C415.88 372.67 420.235 368.361 425.61 368.361H459.276C464.65 368.361 469.006 372.67 469.006 377.983C469.006 383.297 464.65 387.607 459.276 387.607Z" fill="#4CAF50"/>
<path d="M488.857 305.544H384.85C383.676 305.544 382.725 304.603 382.725 303.441C382.725 302.28 383.676 301.337 384.85 301.337H488.857C490.033 301.337 490.985 302.28 490.985 303.441C490.985 304.603 490.033 305.544 488.857 305.544Z" fill="#FEFEFE" fill-opacity="0.7"/>
<path d="M488.857 320.904H384.85C383.676 320.904 382.725 319.963 382.725 318.802C382.725 317.64 383.676 316.698 384.85 316.698H488.857C490.033 316.698 490.985 317.64 490.985 318.802C490.985 319.963 490.033 320.904 488.857 320.904Z" fill="#FEFEFE" fill-opacity="0.7"/>
<path d="M488.856 336.266H424.077C422.903 336.266 421.951 335.325 421.951 334.162C421.951 333.001 422.903 332.06 424.077 332.06H488.856C490.032 332.06 490.983 333.001 490.983 334.162C490.983 335.325 490.032 336.266 488.856 336.266Z" fill="#FEFEFE" fill-opacity="0.7"/>
<path d="M216.448 209.001H223.796V201.735H216.448V209.001ZM0 0H732V724H0V0ZM0 724H732V0H0V724Z" fill="#060505" fill-opacity="0.4"/>
<path d="M235.975 209.001H232.842C231.678 209.001 230.735 208.067 230.735 206.916V203.819C230.735 202.666 231.678 201.734 232.842 201.734H235.975C237.139 201.734 238.082 202.668 238.082 203.819V206.916C238.082 208.067 237.139 209.001 235.975 209.001Z" fill="#060505" fill-opacity="0.4"/>
<path d="M248.694 209.001C246.665 209.001 245.021 207.374 245.021 205.368C245.021 203.361 246.665 201.734 248.694 201.734C250.723 201.734 252.367 203.36 252.367 205.368C252.367 207.374 250.723 209.001 248.694 209.001Z" fill="#060505" fill-opacity="0.4"/>
<path d="M254.468 192.538L205.328 374.146V192.538H254.468Z" fill="#FEFEFE" fill-opacity="0.1"/>
<path d="M309.923 192.536L251.041 410.139H210.479L269.348 192.536H309.923Z" fill="#FEFEFE" fill-opacity="0.1"/>
<path d="M368.897 192.536L310.015 410.139H291.668L350.55 192.536H368.897Z" fill="#FEFEFE" fill-opacity="0.1"/>
<path d="M423.203 192.536L364.321 410.139H357.756L416.638 192.536H423.203Z" fill="#FEFEFE" fill-opacity="0.1"/>
<path d="M230.715 370.505L227.863 370.71L227.835 372.176C226.895 372.441 226.036 372.881 225.284 373.451L224.073 372.599L222.21 374.742L223.238 375.805C222.781 376.624 222.469 377.532 222.342 378.495L220.884 378.738L221.099 381.566L222.577 381.598C222.849 382.533 223.295 383.386 223.871 384.131L223.015 385.33L225.182 387.185L226.251 386.168C227.08 386.624 227.997 386.936 228.967 387.064L229.216 388.511L232.068 388.306L232.095 386.84C233.037 386.574 233.896 386.135 234.646 385.565L235.857 386.418L237.722 384.274L236.692 383.211C237.151 382.391 237.463 381.483 237.589 380.52L239.048 380.278L238.833 377.449L237.353 377.417C237.083 376.483 236.637 375.629 236.06 374.884L236.917 373.686L234.749 371.832L233.68 372.848C232.852 372.391 231.935 372.079 230.964 371.951L230.715 370.505ZM233.826 379.231C233.987 381.345 232.388 383.184 230.258 383.337C228.125 383.49 226.267 381.899 226.106 379.785C225.945 377.671 227.543 375.833 229.676 375.68C231.806 375.527 233.665 377.116 233.826 379.231Z" fill="#FEFEFE" fill-opacity="0.9"/>
<path d="M241.878 394.704L244.111 394.864L244.306 393.731C245.067 393.631 245.785 393.386 246.435 393.027L247.272 393.826L248.971 392.372L248.3 391.432C248.751 390.848 249.101 390.179 249.312 389.448L250.471 389.423L250.639 387.207L249.497 387.017C249.399 386.263 249.154 385.55 248.795 384.908L249.602 384.075L248.141 382.395L247.193 383.064C246.604 382.616 245.93 382.273 245.193 382.064L245.172 380.915L242.938 380.755L242.74 381.888C241.981 381.989 241.261 382.232 240.613 382.592L239.776 381.794L238.077 383.247L238.748 384.186C238.296 384.77 237.947 385.44 237.735 386.172L236.576 386.197L236.407 388.414L237.551 388.603C237.649 389.356 237.894 390.069 238.253 390.711L237.446 391.544L238.907 393.225L239.855 392.555C240.443 393.003 241.117 393.348 241.854 393.555L241.878 394.704ZM240.499 387.592C240.625 385.935 242.082 384.689 243.751 384.809C245.424 384.929 246.675 386.369 246.549 388.027C246.423 389.684 244.968 390.93 243.295 390.81C241.626 390.69 240.373 389.249 240.499 387.592Z" fill="#FEFEFE" fill-opacity="0.6"/>
<path d="M233.539 388.361L231.663 388.495L231.645 389.461C231.025 389.635 230.459 389.925 229.965 390.3L229.17 389.739L227.942 391.15L228.618 391.849C228.317 392.388 228.112 392.987 228.028 393.62L227.07 393.779L227.211 395.641L228.183 395.662C228.362 396.277 228.655 396.839 229.034 397.331L228.471 398.119L229.899 399.339L230.601 398.669C231.147 398.97 231.75 399.176 232.39 399.259L232.553 400.211L234.43 400.077L234.449 399.113C235.069 398.937 235.635 398.648 236.126 398.273L236.924 398.835L238.151 397.424L237.473 396.725C237.777 396.184 237.982 395.586 238.064 394.952L239.024 394.793L238.882 392.931L237.909 392.91C237.732 392.296 237.438 391.733 237.057 391.243L237.621 390.455L236.194 389.234L235.49 389.903C234.947 389.603 234.344 389.396 233.704 389.313L233.539 388.361ZM235.587 394.104C235.692 395.495 234.641 396.706 233.238 396.807C231.834 396.907 230.611 395.86 230.506 394.469C230.4 393.077 231.451 391.866 232.855 391.766C234.258 391.665 235.481 392.713 235.587 394.104Z" fill="#FEFEFE" fill-opacity="0.4"/>
<path d="M492.323 273.027V275.971H488.495" stroke="#FEFEFE" stroke-width="1.35031" stroke-miterlimit="10"/>
<path d="M480.358 275.971H370.518" stroke="#FEFEFE" stroke-width="1.35031" stroke-miterlimit="10" stroke-dasharray="7.17 7.17"/>
<path d="M366.45 275.971H362.622V273.027" stroke="#FEFEFE" stroke-width="1.35031" stroke-miterlimit="10"/>
<path d="M362.622 267.274V224.126" stroke="#FEFEFE" stroke-width="1.35031" stroke-miterlimit="10" stroke-dasharray="6.6 6.6"/>
<path d="M362.622 221.251V218.307H366.45" stroke="#FEFEFE" stroke-width="1.35031" stroke-miterlimit="10"/>
<path d="M374.587 218.307H484.427" stroke="#FEFEFE" stroke-width="1.35031" stroke-miterlimit="10" stroke-dasharray="7.17 7.17"/>
<path d="M488.495 218.307H492.323V221.251" stroke="#FEFEFE" stroke-width="1.35031" stroke-miterlimit="10"/>
<path d="M492.323 227.003V270.15" stroke="#FEFEFE" stroke-width="1.35031" stroke-miterlimit="10" stroke-dasharray="6.6 6.6"/>
<path d="M490.156 219.974H494.49V216.639H490.156V219.974Z" fill="#4057A5"/>
<path d="M490.156 219.974H494.49V216.639H490.156V219.974Z" stroke="#FEFEFE" stroke-width="1.35031" stroke-miterlimit="10"/>
<path d="M490.156 277.639H494.49V274.304H490.156V277.639Z" fill="#4057A5"/>
<path d="M490.156 277.639H494.49V274.304H490.156V277.639Z" stroke="#FEFEFE" stroke-width="1.35031" stroke-miterlimit="10"/>
<path d="M360.453 219.974H364.79V216.639H360.453V219.974Z" fill="#4057A5"/>
<path d="M360.453 219.974H364.79V216.639H360.453V219.974Z" stroke="#FEFEFE" stroke-width="1.35031" stroke-miterlimit="10"/>
<path d="M360.453 277.639H364.79V274.304H360.453V277.639Z" fill="#4057A5"/>
<path d="M360.453 277.639H364.79V274.304H360.453V277.639Z" stroke="#FEFEFE" stroke-width="1.35031" stroke-miterlimit="10"/>
<path d="M425.306 219.974H429.643V216.639H425.306V219.974Z" fill="#4057A5"/>
<path d="M425.306 219.974H429.643V216.639H425.306V219.974Z" stroke="#FEFEFE" stroke-width="1.35031" stroke-miterlimit="10"/>
<path d="M425.306 277.639H429.643V274.304H425.306V277.639Z" fill="#4057A5"/>
<path d="M425.306 277.639H429.643V274.304H425.306V277.639Z" stroke="#FEFEFE" stroke-width="1.35031" stroke-miterlimit="10"/>
<path d="M490.156 248.807H494.49V245.472H490.156V248.807Z" fill="#4057A5"/>
<path d="M490.156 248.807H494.49V245.472H490.156V248.807Z" stroke="#FEFEFE" stroke-width="1.35031" stroke-miterlimit="10"/>
<path d="M360.453 248.807H364.79V245.472H360.453V248.807Z" fill="#4057A5"/>
<path d="M360.453 248.807H364.79V245.472H360.453V248.807Z" stroke="#FEFEFE" stroke-width="1.35031" stroke-miterlimit="10"/>
<path d="M320.901 265.22H325.048V261.12H320.901V265.22Z" stroke="#060505" stroke-opacity="0.8" stroke-width="1.464" stroke-miterlimit="10"/>
<path d="M320.901 360.099H325.048V355.998H320.901V360.099Z" stroke="#060505" stroke-opacity="0.8" stroke-width="1.464" stroke-miterlimit="10"/>
<path d="M272.938 312.659H277.084V308.559H272.938V312.659Z" stroke="#060505" stroke-opacity="0.8" stroke-width="1.464" stroke-miterlimit="10"/>
<path d="M322.975 358.05L275.011 310.611L322.975 263.171" stroke="#060505" stroke-width="1.464" stroke-miterlimit="10"/>
<path d="M275.011 295.429V325.79" stroke="#060505" stroke-width="0.828163" stroke-miterlimit="10"/>
<path d="M276.086 295.433C276.086 295.622 275.604 295.776 275.011 295.776C274.418 295.776 273.936 295.622 273.936 295.433C273.936 295.242 274.418 295.089 275.011 295.089C275.604 295.089 276.086 295.242 276.086 295.433Z" stroke="#060505" stroke-width="0.828163" stroke-miterlimit="10"/>
<path d="M276.086 325.793C276.086 325.983 275.604 326.137 275.011 326.137C274.418 326.137 273.936 325.983 273.936 325.793C273.936 325.603 274.418 325.45 275.011 325.45C275.604 325.45 276.086 325.603 276.086 325.793Z" stroke="#060505" stroke-width="0.828163" stroke-miterlimit="10"/>
<path d="M491.375 217.044L496.922 231.709L506.199 222.533L491.375 217.044Z" fill="#4057A5"/>
<path d="M504.892 228.37L502.825 230.414L498.231 225.87L500.298 223.826L504.892 228.37Z" fill="#4057A5"/>
<path d="M506.202 222.531L491.375 217.045L496.922 231.707L500.529 228.142L502.825 230.414L504.892 228.37L502.595 226.098L506.202 222.531Z" fill="#001A41"/>
<path d="M627.804 240.194C632.773 245.2 659.25 288.682 655.392 299.455C651.534 310.23 613.043 300.473 613.043 300.473L614.322 285.528C614.322 285.528 629.006 285.131 630.317 283.666C631.628 282.202 609.031 262.504 609.031 262.504L627.804 240.194Z" fill="#11171E"/>
<path d="M655.393 299.459C654.952 300.693 654.059 301.656 652.826 302.394C652.812 302.395 652.801 302.408 652.789 302.422C652.562 302.554 652.31 302.686 652.055 302.806C652.03 302.819 651.991 302.835 651.953 302.85C651.739 302.955 651.497 303.06 651.253 303.14C650.297 303.524 649.217 303.811 648.04 304.013C647.731 304.072 647.42 304.117 647.095 304.164C646.63 304.232 646.162 304.287 645.68 304.328C645.278 304.366 644.862 304.407 644.445 304.433C631.811 305.228 613.042 300.479 613.042 300.479L614.323 285.52C614.323 285.52 628.998 285.13 630.315 283.66C630.63 283.304 629.528 281.868 627.685 279.894L627.657 279.869C623.183 275.076 614.334 267.182 610.684 263.958C609.654 263.049 609.03 262.502 609.03 262.502L627.797 240.198C632.769 245.194 659.249 288.675 655.393 299.459Z" fill="#F899A8"/>
<path d="M652.82 302.392C652.806 302.393 652.794 302.407 652.783 302.42C652.556 302.552 652.304 302.684 652.049 302.803C652.024 302.817 651.985 302.833 651.947 302.848C651.731 302.953 651.49 303.058 651.247 303.139C650.291 303.522 649.211 303.81 648.034 304.012C647.723 304.07 647.412 304.116 647.089 304.162C646.623 304.229 646.155 304.285 645.673 304.327C645.271 304.365 644.855 304.404 644.438 304.429C631.801 305.226 613.031 300.475 613.031 300.475L614.312 285.517C614.312 285.517 630.896 285.877 632.213 284.407C632.237 284.381 632.236 284.366 632.248 284.341C632.472 283.783 630.526 282.06 627.677 279.89L627.649 279.866C623.173 275.07 614.323 267.176 610.671 263.952L619.544 253.259L626.749 252.032C626.749 252.032 644.464 276.761 652.82 302.392Z" fill="#060505" fill-opacity="0.2"/>
<path d="M579.64 242.052C577.177 244.119 576.1 246.875 577.234 248.203L653.292 337.229C654.428 338.555 657.345 337.958 659.808 335.89C662.273 333.822 663.349 331.067 662.215 329.739L586.156 240.713C585.022 239.386 582.105 239.984 579.64 242.052Z" fill="#11171E"/>
<path d="M586.152 240.714L662.212 329.74C663.345 331.066 662.267 333.823 659.808 335.885C657.341 337.957 654.431 338.549 653.299 337.224L577.236 248.197C576.613 247.465 576.662 246.303 577.246 245.048C577.516 244.464 577.911 243.845 578.421 243.262C578.77 242.851 579.184 242.436 579.64 242.052C582.098 239.988 585.021 239.388 586.152 240.714Z" fill="#FEFEFE" fill-opacity="0.7"/>
<path d="M662.213 329.738C663.346 331.064 662.266 333.82 659.808 335.883C657.341 337.955 654.43 338.547 653.298 337.221C652.672 336.489 654.003 335.217 654.696 333.46L577.245 245.043C577.515 244.459 577.908 243.84 578.418 243.258L654.492 332.298C654.849 331.877 655.245 331.46 655.702 331.077C658.159 329.013 661.082 328.412 662.213 329.738Z" fill="#060505" fill-opacity="0.3"/>
<path d="M570.614 241.375C568.68 243.939 568.252 246.865 569.656 247.91L663.828 318.033C665.232 319.08 667.939 317.849 669.873 315.285C671.805 312.723 672.235 309.797 670.829 308.75L576.658 238.629C575.252 237.582 572.547 238.811 570.614 241.375Z" fill="#4057A5"/>
<path d="M576.656 238.63L670.826 308.752C672.229 309.796 671.799 312.726 669.87 315.283C667.935 317.85 665.232 319.072 663.83 318.028L569.66 247.905C568.886 247.329 568.671 246.183 568.957 244.829C569.089 244.199 569.333 243.507 569.698 242.827C569.945 242.348 570.255 241.851 570.616 241.373C572.544 238.817 575.254 237.586 576.656 238.63Z" fill="#C7E1FF"/>
<path d="M670.826 308.75C672.229 309.794 671.799 312.724 669.871 315.281C667.935 317.848 665.232 319.07 663.829 318.025C663.056 317.45 664.065 315.913 664.344 314.044L568.949 244.821C569.081 244.192 569.327 243.5 569.692 242.819L663.88 312.955C664.135 312.465 664.426 311.971 664.785 311.493C666.713 308.937 669.424 307.706 670.826 308.75Z" fill="#060505" fill-opacity="0.3"/>
<path d="M640.049 488.802L633.576 489.793C621.823 457.47 611.171 416.226 604.31 387.43C603.252 382.968 602.278 378.794 601.405 375.011C601.359 374.816 601.326 374.633 601.28 374.451C599.56 366.939 598.243 360.954 597.424 357.16C596.797 354.187 596.448 352.558 596.448 352.558L619.86 349.348L620.835 359.089L622.276 373.4L622.557 376.206L623.534 385.958L626.15 412.114C638.448 441.879 640.049 488.802 640.049 488.802Z" fill="#FCBAA9"/>
<path d="M622.241 373.412L601.341 375.025C601.295 374.829 601.26 374.647 601.215 374.464C599.493 366.947 598.175 360.955 597.352 357.159L620.798 359.089L622.241 373.412Z" fill="#FC843F" fill-opacity="0.5"/>
<path d="M624.667 367.142L599.932 369.442L598.972 369.526L594.556 350.971C594.556 350.971 585.391 316.615 588.212 287.974C589.105 287.001 613.054 292.478 613.054 292.478C628.303 320.317 623.329 351.927 623.329 351.927L624.667 367.142Z" fill="#DF416B"/>
<path d="M599.938 369.429L598.983 369.513L594.57 350.962C594.57 350.962 606.064 332.951 603.011 323.271C603.471 323.96 614.547 341.529 599.938 369.429Z" fill="#060505" fill-opacity="0.2"/>
<path d="M620.505 511.83C621.724 510.853 623.113 510.107 624.605 509.625C624.605 509.625 629.063 505.251 631.209 492.078L637.046 490.572C639.077 490.086 641.198 490.905 642.356 492.624C642.519 492.856 642.643 493.112 642.728 493.383C643.028 494.795 643.236 496.225 643.35 497.663C643.939 502.12 643.435 512.126 643.435 512.126H642.38L641.961 503.045C641.806 499.963 639.419 503.578 638.736 506.899C638.052 510.219 636.603 513.75 629.77 513.916C621.8 514.07 618.492 513.762 620.505 511.83Z" fill="#2F357B"/>
<path d="M642.56 492.731C642.943 489.648 643.063 484.291 643.063 484.291L630.092 485.713C630.092 485.713 631.665 491.806 630.369 496.382C636.903 494.687 642.56 492.731 642.56 492.731Z" fill="#2F357B"/>
<path d="M586.948 490.444L580.416 490.33C574.873 459.201 571.527 420.792 569.623 391.843C569.326 387.303 569.059 383.011 568.835 379.003C568.732 377.097 568.627 375.269 568.531 373.507C568.055 364.805 567.763 357.91 567.587 353.647C567.461 350.536 567.404 348.826 567.404 348.826L590.984 349.61L590.554 355.563L589.133 375.213L588.974 377.458L588.022 390.435L586.426 412.526C593.42 443.937 586.948 490.444 586.948 490.444Z" fill="#FCBAA9"/>
<path d="M590.547 355.561L589.122 375.222L588.964 377.469L568.776 379.014C568.673 377.108 568.568 375.278 568.474 373.515C567.995 364.809 567.702 357.912 567.527 353.645L590.547 355.561Z" fill="#FC843F" fill-opacity="0.5"/>
<path d="M594.525 352.735C593.998 356.758 592.501 372.397 592.501 372.397L566.162 370.15C556.812 301.4 577.477 285.917 577.477 285.917L599.006 293.881C606.131 329.86 605.075 335.48 594.525 352.735Z" fill="#DF416B"/>
<path d="M567.732 511.83C568.95 510.853 570.339 510.107 571.831 509.625C571.831 509.625 576.291 505.251 578.435 492.078L584.272 490.572C586.303 490.086 588.424 490.905 589.584 492.624C589.745 492.856 589.871 493.112 589.954 493.383C590.256 494.795 590.462 496.225 590.576 497.663C591.165 502.12 590.661 512.126 590.661 512.126H589.606L589.187 503.045C589.032 499.963 586.645 503.578 585.963 506.899C585.279 510.219 583.829 513.75 576.996 513.916C569.026 514.07 565.718 513.762 567.732 511.83Z" fill="#2F357B"/>
<path d="M589.787 492.731C590.171 489.648 590.291 484.291 590.291 484.291L577.32 485.713C577.32 485.713 578.89 491.806 577.596 496.382C584.129 494.687 589.787 492.731 589.787 492.731Z" fill="#2F357B"/>
<path d="M611.517 230.894C612.518 235.099 607.026 236.917 607.026 236.917C597.925 233.257 596.157 228.531 596.157 228.531C603.62 224.51 601.232 213.545 601.232 213.545L602.78 214.265L613.58 216.16C613.58 216.16 610.699 221.882 610.327 223.182C610.327 223.194 610.317 223.206 610.318 223.217C608.421 230.011 611.517 230.894 611.517 230.894Z" fill="#FCBAA9"/>
<path d="M590.158 202.673C590.521 205.338 589.627 207.652 588.159 207.842C586.691 208.032 585.208 206.027 584.845 203.362C584.483 200.698 585.377 198.383 586.845 198.193C588.313 198.003 589.796 200.009 590.158 202.673Z" stroke="#11171E" stroke-width="0.732" stroke-linecap="round" stroke-linejoin="round"/>
<path d="M609.908 216.544C609.825 216.638 609.727 216.735 609.629 216.808C608.333 218.006 606.818 219.19 605.004 219.857C599.93 221.736 596.254 221.487 593.599 219.436L593.588 219.437C589.837 216.33 588.167 210.178 587.601 202.573C587.332 199.086 587.42 196.011 588.06 193.544C588.07 193.52 588.058 193.432 588.067 193.406C588.102 193.306 588.116 193.173 588.151 193.072C589.139 189.613 591.232 187.183 594.914 185.795C596.188 185.319 597.658 184.955 599.338 184.714C614.128 182.641 620.115 206.667 609.908 216.544Z" fill="#FCBAA9"/>
<path d="M609.61 216.776C608.311 217.98 606.765 218.963 604.947 219.633C599.861 221.521 596.154 221.101 593.489 219.005C596.142 219.238 599.64 218.999 602.802 217.012C604.796 215.765 607.227 215.955 609.61 216.776Z" fill="#060505"/>
<path d="M588.055 193.441C588.055 193.441 588.645 203.87 599.095 207.027C599.095 207.027 604.783 217.201 611.03 216.547C619.543 215.653 625.389 202.691 620.785 190.854C614.815 175.505 590.477 177.345 588.055 193.441Z" fill="#11171E"/>
<path d="M593.674 204.72C593.458 203.11 594.392 200.238 596.961 200.278C599.618 200.32 601.931 206.516 595.722 208.774C594.83 209.097 594.124 208.08 593.674 204.72Z" fill="#FDA754"/>
<path d="M604.674 180.133C604.674 180.133 594.41 178.926 589.463 183.603C583.688 189.066 581.91 194.172 590.509 200.626C590.509 200.626 606.442 193.098 612.135 193.515C617.83 193.934 622.01 195.023 622.01 195.023C621.688 183.936 609.911 177.178 604.674 180.133Z" fill="#11171E"/>
<path d="M593.371 202.206C593.371 202.206 597.638 213.763 594.895 224.432C594.895 224.432 619.524 229.491 627.106 224.028C634.687 218.566 625.172 204.75 623.671 196.269C622.17 187.79 616.724 175.674 604.655 180.116C592.589 184.558 593.371 202.206 593.371 202.206Z" fill="#11171E"/>
<path d="M584.734 202.606L594.701 201.296" stroke="#11171E" stroke-width="0.732" stroke-linecap="round" stroke-linejoin="round"/>
<path d="M581.55 229.979C581.55 229.979 593.533 225.809 611.545 231.04C629.556 236.27 630.181 243.873 630.181 243.873C630.181 243.873 618.632 269.443 616.696 298.441L569.712 296.494C569.712 296.494 564.303 255.532 581.55 229.979Z" fill="#11171E"/>
<path d="M630.187 243.867C630.187 243.867 618.637 269.44 616.694 298.444L569.713 296.5C569.713 296.5 568.955 290.792 568.919 282.32C568.882 276.409 569.19 269.142 570.324 261.515C571.944 250.788 575.228 239.343 581.549 229.98C581.549 229.98 593.532 225.816 611.537 231.045C629.556 236.273 630.187 243.867 630.187 243.867Z" fill="#F899A8"/>
<path d="M580.734 263.306C580.734 263.306 578.73 275.093 568.917 282.318C568.878 276.406 569.188 269.139 570.321 261.513L580.734 263.306Z" fill="#060505" fill-opacity="0.2"/>
<path d="M593.647 228.41C593.647 228.41 597.683 257.964 610.898 259.217C624.114 260.469 630.134 238.68 627.905 236.019C625.676 233.359 608.671 228.28 593.647 228.41Z" fill="#11171E"/>
<path d="M593.647 228.41C593.647 228.41 597.683 257.964 610.898 259.217C624.114 260.469 630.134 238.68 627.905 236.019C625.676 233.359 608.671 228.28 593.647 228.41Z" fill="#DF416B"/>
<path d="M531.27 248.309L523.263 241.39C523.263 241.39 521.387 237.964 520.062 237.417C518.736 236.871 506.502 235.129 505.192 235.498C503.881 235.865 506.197 244.336 507.907 245.429C509.617 246.523 517.372 247.791 519.267 247.627C521.162 247.464 520.2 247.382 520.2 247.382L527.98 256.065L531.27 248.309Z" fill="#FCBAA9"/>
<path d="M551.738 263.055L526.528 242.926C526.528 242.926 521.982 245.766 522.498 254.83C522.498 254.83 541.731 288.156 554.972 288.476C564.466 281.453 556.918 263.556 551.738 263.055Z" fill="#11171E"/>
<path d="M551.738 263.055L526.528 242.926C526.528 242.926 521.982 245.766 522.498 254.83C522.498 254.83 541.732 288.156 554.972 288.476C563.906 282.287 557.894 263.886 551.738 263.055Z" fill="#F899A8"/>
<path d="M575.01 231.682C575.01 231.682 562.692 244.211 549.488 263.58C549.488 263.58 538.041 282.837 556.793 288.206C569.933 286.41 588.344 262.446 588.344 262.446C588.344 262.446 601.126 222.279 575.01 231.682Z" fill="#F899A8"/>
<path d="M167.111 500.842L177.104 501.886L178.978 480.568L168.985 479.524L167.111 500.842Z" fill="#FCBAA9"/>
<path d="M168.986 479.526L178.98 480.57L178.003 491.564L168.01 490.52L168.986 479.526Z" fill="#FC843F"/>
<path d="M144.077 283.34H173.43C178.317 309.733 193.613 403.129 182.638 486.344L165.24 484.211C165.24 484.211 166.851 373.738 151.487 332.897C144.746 309.558 144.006 290.014 144.077 283.34Z" fill="#001A41"/>
<path d="M184.628 490.354L163.094 487.185L163.753 481.286L186.155 484.195L184.628 490.354Z" fill="#001A41"/>
<path d="M151.492 332.901C153.758 338.919 155.642 346.437 157.232 354.892C158.67 335.441 152.922 314.813 152.922 314.813C152.922 314.813 147.597 312.183 146.647 311.721C148.577 323.014 151.492 332.901 151.492 332.901Z" fill="#060505" fill-opacity="0.2"/>
<path d="M178.16 498.71H166.397C166 498.712 165.656 498.984 165.57 499.368L163.662 507.896C163.498 508.659 163.993 509.411 164.764 509.572C164.867 509.593 164.974 509.602 165.078 509.601C168.886 509.54 171.657 509.31 176.435 509.31C179.38 509.31 188.26 509.614 192.326 509.614C196.39 509.614 196.92 505.642 195.257 505.277C187.793 503.67 182.174 501.44 179.784 499.32C179.341 498.917 178.762 498.699 178.16 498.71Z" fill="#2F357B"/>
<path d="M178.826 500.038C178.734 500.013 178.665 499.935 178.653 499.842C178.637 499.753 178.683 499.664 178.763 499.624C179.109 499.404 182.237 497.504 183.309 498.053C183.555 498.167 183.71 498.416 183.703 498.685C183.767 499.147 183.586 499.608 183.223 499.903C182.678 500.271 182.022 500.443 181.363 500.391C180.507 500.365 179.656 500.248 178.826 500.038ZM179.491 499.721C180.621 500.099 181.854 500.038 182.94 499.55C183.171 499.344 183.287 499.039 183.247 498.733C183.236 498.551 183.161 498.467 183.1 498.467C183.009 498.419 182.906 498.397 182.804 498.406C181.625 498.63 180.499 499.078 179.491 499.721Z" fill="#2F357B"/>
<path d="M178.762 500.087C178.693 500.041 178.652 499.963 178.653 499.88C178.665 499.745 178.898 496.991 180.019 496.091C180.286 495.859 180.641 495.752 180.993 495.798C181.353 495.797 181.66 496.047 181.731 496.395C181.928 497.407 179.994 499.515 178.997 500.051H178.886C178.85 500.074 178.807 500.087 178.762 500.087ZM180.316 496.359C179.636 497.22 179.235 498.264 179.169 499.356C180.167 498.613 181.4 497.016 181.277 496.395C181.264 496.334 181.24 496.163 180.945 496.163H180.832C180.641 496.164 180.46 496.234 180.316 496.359Z" fill="#2F357B"/>
<path d="M117.25 500.122H126.932L127.732 477.937H118.039L117.25 500.122Z" fill="#FCBAA9"/>
<path d="M118.038 477.948H127.732L127.312 489.388H117.619L118.038 477.948Z" fill="#FC843F"/>
<path d="M122.036 283.34H158.766C156.584 309.194 156.44 308.14 151.487 332.897C149.72 354.754 147.624 378.01 145.801 390.385C141.33 420.844 131.76 487.407 131.76 487.407H114.047C114.047 487.407 117.667 423.693 119.342 393.76C121.174 361.261 121.966 290.014 122.036 283.34Z" fill="#001A41"/>
<path d="M133.892 487.549H113V481.373L134.679 480.972L133.892 487.549Z" fill="#001A41"/>
<path d="M128.274 499.013H116.511C116.114 499.016 115.77 499.288 115.684 499.672L113.776 508.2C113.612 508.962 114.107 509.713 114.879 509.874C114.981 509.896 115.087 509.906 115.192 509.905C118.998 509.844 121.771 509.612 126.55 509.612C129.494 509.612 138.374 509.916 142.44 509.916C146.504 509.916 147.034 505.946 145.371 505.579C137.907 503.972 132.29 501.742 129.901 499.622C129.457 499.221 128.876 499.001 128.274 499.013Z" fill="#2F357B"/>
<path d="M128.939 500.34C128.847 500.316 128.778 500.239 128.766 500.146C128.75 500.057 128.795 499.968 128.876 499.928C129.221 499.706 132.35 497.806 133.422 498.355C133.669 498.471 133.824 498.719 133.817 498.988C133.883 499.45 133.7 499.91 133.337 500.207C132.792 500.575 132.135 500.746 131.476 500.694C130.62 500.669 129.769 500.55 128.939 500.34ZM129.605 500.023C130.735 500.401 131.966 500.34 133.053 499.854C133.284 499.647 133.4 499.343 133.36 499.036C133.348 498.853 133.275 498.769 133.214 498.769C133.123 498.722 133.019 498.7 132.917 498.709C131.738 498.933 130.614 499.38 129.605 500.023Z" fill="#2F357B"/>
<path d="M128.876 500.391C128.807 500.345 128.766 500.267 128.768 500.184C128.781 500.051 129.012 497.294 130.134 496.393C130.4 496.162 130.756 496.057 131.107 496.102C131.467 496.101 131.775 496.351 131.845 496.699C132.043 497.711 130.109 499.818 129.112 500.354H129C128.964 500.377 128.921 500.391 128.876 500.391ZM130.431 496.661C129.75 497.523 129.349 498.568 129.283 499.66C130.281 498.917 131.514 497.321 131.391 496.699C131.378 496.638 131.355 496.469 131.059 496.469H130.946C130.756 496.469 130.574 496.537 130.431 496.661Z" fill="#2F357B"/>
<path d="M258.601 289.235L272.55 294.397L265.237 287.163C264.688 287.466 263.991 287.409 263.524 286.947C262.961 286.39 262.961 285.485 263.524 284.928C264.088 284.37 265.003 284.37 265.567 284.928C266.034 285.389 266.091 286.077 265.786 286.622L273.099 293.856L267.88 280.058L263.259 281.071L263.079 279.421L262.204 278.556L257.083 283.621L257.958 284.486L259.626 284.665L258.601 289.235Z" fill="#11171E"/>
<path d="M258.601 289.235L272.55 294.397L265.237 287.163C264.688 287.466 263.991 287.409 263.524 286.947C262.961 286.39 262.961 285.485 263.524 284.928C264.088 284.37 265.003 284.37 265.567 284.928C266.034 285.389 266.091 286.077 265.786 286.622L273.099 293.856L267.88 280.058L263.259 281.071L263.079 279.421L262.204 278.556L257.083 283.621L257.958 284.486L259.626 284.665L258.601 289.235Z" fill="#FEFEFE" fill-opacity="0.2"/>
<path d="M200.968 295.985C208.155 301.092 239.14 277.57 239.14 277.57C239.14 277.57 257.492 283.547 258.743 282.58C259.995 281.612 258.883 266.919 257.554 266.446C256.223 265.973 238.214 266.603 237.249 267.394C236.284 268.185 211.955 279.431 211.235 278.642C206.25 280.707 196.052 288.389 200.968 295.985Z" fill="#FCBAA9"/>
<path d="M242.142 276.48C242.312 276.5 242.471 276.515 242.623 276.516C242.559 276.445 242.507 276.376 242.455 276.308C242.355 276.376 242.26 276.432 242.142 276.48Z" fill="#CC5C44"/>
<path d="M203.365 248.875C203.365 248.875 193.666 288.469 199.598 294.973C209.258 299.478 212.454 284.593 213.301 280.199C212.765 279.277 218.606 255.758 218.606 255.758L203.365 248.875Z" fill="#FCBAA9"/>
<path d="M199.626 241.464L199.472 244.608L198.736 259.316L198.592 262.352L219.127 266.608C219.127 266.608 228.064 236.251 227.251 232.117L199.626 241.464Z" fill="#4057A5"/>
<path d="M199.626 241.464L199.472 244.608L198.736 259.316L198.592 262.352L219.127 266.608C219.127 266.608 228.064 236.251 227.251 232.117L199.626 241.464Z" fill="#C7E1FF"/>
<path d="M199.469 244.58L198.732 259.282C206.918 254.215 211.931 243.596 211.931 243.596L199.469 244.58Z" fill="#060505" fill-opacity="0.2"/>
<path d="M197.801 261.846L220.068 266.063L219.645 267.908L197.497 263.494L197.801 261.846Z" fill="#F899A8"/>
<path d="M123.039 285.567L120.368 291.284C120.368 291.284 154.078 304.409 175.795 309.651L176.097 305.341L123.039 285.567Z" fill="#F899A8"/>
<path d="M224.813 228.456C224.813 228.456 218.073 212.887 199.482 207.369C180.89 201.851 174.506 202.258 166.062 206.671C153.729 213.117 121.528 286.936 121.528 286.936C121.528 286.936 145.738 301.5 176.352 306.938C176.352 306.938 182.051 285.651 192.528 272.935C212.902 248.206 224.813 228.456 224.813 228.456Z" fill="#F899A8"/>
<path d="M121.525 286.934C121.525 286.934 145.733 301.497 176.353 306.944C176.353 306.944 177.05 304.322 178.422 300.361C179.061 298.492 179.866 296.307 180.807 293.976C181.77 291.564 182.898 288.983 184.163 286.39C184.842 284.994 185.566 283.6 186.327 282.212C188.155 278.913 190.228 275.712 192.523 272.932C193.808 271.369 195.064 269.823 196.287 268.304C198.415 265.655 200.44 263.065 202.354 260.582C206.369 255.357 209.9 250.534 212.9 246.304C215.053 243.269 216.932 240.534 218.517 238.178C220.281 235.559 221.695 233.394 222.734 231.782C224.106 229.642 224.814 228.459 224.814 228.459C224.814 228.459 224.359 227.409 223.351 225.744C220.55 221.109 213.454 211.741 200.094 207.569C199.892 207.495 199.687 207.431 199.482 207.369C185.316 203.169 178.237 202.401 171.938 204.23C169.966 204.795 168.072 205.621 166.059 206.677C164.684 207.4 163.044 208.961 161.247 211.181C158.277 214.82 154.826 220.194 151.235 226.44C150.702 227.372 150.163 228.327 149.621 229.292C147.19 233.65 144.702 238.324 142.27 243.073C141.581 244.418 140.891 245.772 140.215 247.118C139.181 249.185 138.16 251.255 137.159 253.291C134.637 258.432 132.263 263.438 130.151 267.936C127.127 274.419 124.665 279.857 123.161 283.234C122.115 285.59 121.525 286.934 121.525 286.934ZM200.39 208.372C201.706 208.746 202.972 209.168 204.076 209.598C209.005 211.533 215.692 217.468 215.004 219.337C214.305 221.204 210.112 225.35 202.866 222.306C200.362 221.261 198.148 219.456 196.318 217.454C192.845 213.681 190.759 209.224 190.768 207.944C190.775 206.432 195.82 207.099 200.39 208.372Z" fill="#C7E1FF"/>
<path d="M177.628 229.998C177.628 229.998 161.476 251.523 154.373 270.93L180.421 280.983C180.421 280.983 200.822 251.562 205.913 242.041C205.913 242.041 184.954 234.598 177.628 229.998Z" fill="#F899A8"/>
<path d="M200.423 241.773L204.082 243.073L200.786 244.512L200.423 241.773Z" fill="#FEFEFE"/>
<path d="M140.103 247.08C153.285 245.094 167.93 227.061 167.93 227.061L162.203 221.316L151.119 226.408C150.587 227.34 150.048 228.293 149.506 229.258C147.076 233.615 144.591 238.288 142.158 243.035C141.471 244.378 140.779 245.734 140.103 247.08Z" fill="#060505" fill-opacity="0.2"/>
<path d="M193.466 208.519C193.793 214.82 200.521 219.56 204.356 221.007C209.736 223.037 212.61 219.185 212.61 219.185C212.61 219.185 208.779 215.694 209.961 213.308C210.65 211.921 211.766 210.691 213.064 209.574C213.74 208.98 214.476 208.429 215.221 207.902L212.543 190.519C208.964 196.759 200.29 208.135 193.466 208.519Z" fill="#FCBAA9"/>
<path d="M210.171 197.586C204.556 204.043 207.878 210.591 209.978 213.319C210.668 211.933 211.783 210.705 213.08 209.587L210.171 197.586Z" fill="#060505" fill-opacity="0.2"/>
<path d="M244.707 194.586C244.707 194.586 239.445 206.899 230.733 207.588C222.02 208.275 235.027 187.297 235.027 187.297L244.707 194.586Z" fill="#CC5C44"/>
<path d="M244.707 194.586C244.707 194.586 239.445 206.899 230.733 207.588C222.02 208.275 235.027 187.297 235.027 187.297L244.707 194.586Z" fill="#5F5755"/>
<path d="M207.676 205.935C208.013 211.877 212.104 215.855 217.051 217.061C220.229 217.838 223.765 217.459 226.886 215.728C227.299 215.506 227.701 215.248 228.101 214.975C235.338 209.882 246.985 193.566 239.218 189.451C232.857 186.078 228.17 180.417 221.676 183.614C219.823 184.51 218.22 185.843 216.974 187.479C211.078 194.987 207.256 199.129 207.676 205.935Z" fill="#FCBAA9"/>
<path d="M230.111 183.115L227.881 186.711C226.338 186.434 224.712 187.134 224.174 188.819C223.025 192.414 218.015 195.455 214.516 195.488C214.516 195.488 215.408 194.241 214.167 193.726C212.925 193.213 208.209 199.656 207.805 204.179C207.805 204.179 206.269 198.159 209.821 190.299C213.108 183.028 216.045 178.972 219.066 176.43L230.111 183.115Z" fill="#CC5C44"/>
<path d="M230.111 183.115L227.881 186.711C226.338 186.434 224.712 187.134 224.174 188.819C223.025 192.414 218.015 195.455 214.516 195.488C214.516 195.488 215.408 194.241 214.167 193.726C212.925 193.213 208.209 199.656 207.805 204.179C207.805 204.179 206.269 198.159 209.821 190.299C213.108 183.028 216.045 178.972 219.066 176.43L230.111 183.115Z" fill="#5F5755"/>
<path d="M215.738 179.942C215.738 179.942 219.832 183.571 227.875 186.752C240.34 191.682 242.369 198.731 242.369 198.731C242.369 198.731 246.46 198.186 248.218 194.822C249.974 191.461 245.922 188.083 245.922 188.083C245.922 188.083 246.934 183.68 244.722 180.722C242.51 177.765 237.808 178.564 237.808 178.564C237.808 178.564 236.467 172.721 231.57 170.979C225.555 168.84 222.42 173.851 222.42 173.851C222.42 173.851 217.107 171.151 215.538 173.76C213.971 176.371 215.738 179.942 215.738 179.942Z" fill="#11171E"/>
<path d="M230.198 202.317C228.709 204.574 225.903 205.373 223.932 204.103C221.959 202.832 221.568 199.971 223.057 197.715C224.546 195.459 227.353 194.66 229.325 195.931C231.297 197.202 231.687 200.061 230.198 202.317Z" stroke="#11171E" stroke-width="0.732" stroke-linecap="round" stroke-linejoin="round"/>
<path d="M238.802 208.73C237.313 210.987 234.507 211.786 232.536 210.516C230.564 209.245 230.174 206.386 231.663 204.129C233.152 201.873 235.958 201.073 237.929 202.344C239.901 203.614 240.291 206.474 238.802 208.73Z" stroke="#11171E" stroke-width="0.732" stroke-linecap="round" stroke-linejoin="round"/>
<path d="M229.884 202.815C229.884 202.815 231.511 202.837 231.655 204.123" stroke="#11171E" stroke-width="0.732" stroke-linecap="round" stroke-linejoin="round"/>
<path d="M223.05 197.709L217.318 192.828C216.57 192.19 215.591 191.878 214.606 191.962L214.192 191.997" stroke="#11171E" stroke-width="0.732" stroke-linecap="round" stroke-linejoin="round"/>
<path d="M208.614 190.599C207.981 192.909 208.298 195.372 209.495 197.443C211.101 200.173 214.13 199.266 215.553 196.609C216.796 194.237 217.526 189.902 214.992 188.094C212.459 186.288 209.427 187.772 208.614 190.599Z" fill="#FCBAA9"/>
<path d="M174.416 315.268L113.835 329.797L104.536 292.666L165.12 278.135L174.416 315.268Z" fill="#4CAF50"/>
<path d="M130.258 297.657L121.273 308.359L134.297 313.785" stroke="#FEFEFE" stroke-width="2.928" stroke-linecap="round" stroke-linejoin="round"/>
<path d="M148.694 310.275L157.68 299.574L144.656 294.147" stroke="#FEFEFE" stroke-width="2.928" stroke-linecap="round" stroke-linejoin="round"/>
<path d="M138.615 312.715L140.339 295.214" stroke="#FEFEFE" stroke-width="2.928" stroke-linecap="round" stroke-linejoin="round"/>
<path d="M120.1 222.743C118.024 227.809 123.267 277.682 123.267 277.682C123.267 277.682 122.128 278.384 122.262 279.458C122.395 280.532 125.426 294.194 125.769 294.782C126.111 295.37 137.952 299.455 139.131 297.603C140.311 295.75 138.912 279.83 138.912 279.83L132.222 275.705C132.222 275.705 130.403 238.521 133.056 231.854C133.788 222.768 124.531 218.012 120.1 222.743Z" fill="#FCBAA9"/>
<path d="M159.358 205.613C159.358 205.613 128.152 216.151 123.284 218.791C118.567 222.391 120.682 233.066 127.534 233.935C133.879 230.411 154.757 226.43 154.757 226.43L159.358 205.613Z" fill="#FCBAA9"/>
<path d="M179.54 205.142C179.353 212.998 170.287 225.289 162.323 227.288C150.274 230.313 136.942 231.448 136.942 231.448L133.427 213.182C133.427 213.182 149.565 207.977 159.182 205.137C170.877 201.681 179.54 205.142 179.54 205.142Z" fill="#4057A5"/>
<path d="M179.54 205.142C179.353 212.998 170.287 225.289 162.323 227.288C150.274 230.313 136.942 231.448 136.942 231.448L133.427 213.182C133.427 213.182 149.565 207.977 159.182 205.137C170.877 201.681 179.54 205.142 179.54 205.142Z" fill="#C7E1FF"/>
<path d="M133.855 212.262L131.734 213.352L135.401 232.398L137.447 232.063L133.855 212.262Z" fill="#F899A8"/>
</g>
</g>
<defs>
<clipPath id="clip0_32_1104">
<rect width="732" height="724" fill="white"/>
</clipPath>
</defs>
</svg>
