<svg xmlns="http://www.w3.org/2000/svg" width="49.219" height="56" viewBox="0 0 49.219 56"><defs><style>.a{fill:#1492e6;}</style></defs><g transform="translate(-31)"><g transform="translate(31)"><path class="a" d="M64.958,37c5.959-9.351,5.21-8.184,5.382-8.428a17.912,17.912,0,0,0,3.316-10.416A18.047,18.047,0,1,0,40.974,28.705L46.26,37C40.608,37.869,31,40.457,31,46.156c0,2.078,1.356,5.038,7.816,7.346A51.783,51.783,0,0,0,55.609,56c11.815,0,24.609-3.333,24.609-9.844C80.219,40.456,70.622,37.87,64.958,37ZM43.715,26.9q-.027-.042-.057-.083a14.766,14.766,0,1,1,24.021-.166c-.158.208.667-1.073-12.07,18.913ZM55.609,52.719c-12.906,0-21.328-3.793-21.328-6.562,0-1.861,4.328-4.921,13.918-6.114L54.226,49.5a1.641,1.641,0,0,0,2.767,0l6.027-9.457c9.59,1.193,13.918,4.253,13.918,6.114C76.938,48.9,68.591,52.719,55.609,52.719Z" transform="translate(-31)"/></g><g transform="translate(47.272 9.885)"><path class="a" d="M189.338,91a8.338,8.338,0,1,0,8.338,8.338A8.347,8.347,0,0,0,189.338,91Zm0,13.34a5,5,0,1,1,5-5A5.008,5.008,0,0,1,189.338,104.34Z" transform="translate(-181 -91)"/></g></g></svg>