<svg xmlns="http://www.w3.org/2000/svg" width="55.919" height="56" viewBox="0 0 55.919 56"><defs><style>.a{fill:#1492e6;}</style></defs><g transform="translate(-0.344 0)"><g transform="translate(0.344 0)"><path class="a" d="M44.591,58.877a5.512,5.512,0,0,0-4-1.833,5.7,5.7,0,0,0-4.045,1.821l-3.737,3.725c-.308-.166-.615-.319-.911-.473-.426-.213-.828-.414-1.171-.627A40.62,40.62,0,0,1,21,52.621,23.963,23.963,0,0,1,17.8,47.583c.97-.887,1.869-1.809,2.744-2.7.331-.331.662-.674.993-1.005a5.426,5.426,0,0,0,0-8.184l-3.229-3.229c-.367-.367-.745-.745-1.1-1.124-.71-.733-1.455-1.49-2.224-2.2a5.6,5.6,0,0,0-3.962-1.739A5.793,5.793,0,0,0,7,29.145l-.024.024L2.96,33.225a8.652,8.652,0,0,0-2.566,5.5A20.732,20.732,0,0,0,1.907,47.5a50.922,50.922,0,0,0,9.048,15.091A55.657,55.657,0,0,0,29.488,77.1,28.877,28.877,0,0,0,39.9,80.177c.248.012.509.024.745.024a8.912,8.912,0,0,0,6.824-2.933c.012-.024.035-.035.047-.059a26.887,26.887,0,0,1,2.07-2.141c.509-.485,1.029-.993,1.538-1.526a5.9,5.9,0,0,0,1.786-4.092,5.684,5.684,0,0,0-1.821-4.057Zm4.234,12.454c-.012,0-.012.012,0,0-.461.5-.934.946-1.443,1.443A31.1,31.1,0,0,0,45.1,75.139a5.7,5.7,0,0,1-4.447,1.88c-.177,0-.367,0-.544-.012a25.653,25.653,0,0,1-9.225-2.767A52.537,52.537,0,0,1,13.427,60.568a48.014,48.014,0,0,1-8.516-14.18,16.886,16.886,0,0,1-1.325-7.4,5.429,5.429,0,0,1,1.632-3.513l4.033-4.033a2.689,2.689,0,0,1,1.8-.84,2.53,2.53,0,0,1,1.727.828l.035.035c.721.674,1.407,1.372,2.129,2.117.367.378.745.757,1.124,1.147l3.229,3.229c1.254,1.254,1.254,2.413,0,3.666-.343.343-.674.686-1.017,1.017-.993,1.017-1.94,1.963-2.969,2.886-.024.024-.047.035-.059.059a2.412,2.412,0,0,0-.615,2.685l.035.106a25.921,25.921,0,0,0,3.82,6.233l.012.012A43.409,43.409,0,0,0,29,64.175a16.15,16.15,0,0,0,1.455.792c.426.213.828.414,1.171.627.047.024.095.059.142.083a2.564,2.564,0,0,0,1.171.3,2.529,2.529,0,0,0,1.8-.816l4.045-4.045a2.676,2.676,0,0,1,1.786-.887,2.409,2.409,0,0,1,1.7.863l.024.024,6.517,6.517A2.338,2.338,0,0,1,48.825,71.331Z" transform="translate(-0.344 -24.201)"/><path class="a" d="M246.243,89.057A15.052,15.052,0,0,1,258.5,101.314a1.569,1.569,0,0,0,1.556,1.31,2.088,2.088,0,0,0,.269-.023,1.58,1.58,0,0,0,1.3-1.825,18.2,18.2,0,0,0-14.83-14.83,1.587,1.587,0,0,0-1.824,1.287A1.562,1.562,0,0,0,246.243,89.057Z" transform="translate(-215.903 -75.724)"/><path class="a" d="M275.03,24.444A29.969,29.969,0,0,0,250.609.024a1.577,1.577,0,1,0-.515,3.111,26.769,26.769,0,0,1,21.824,21.824,1.569,1.569,0,0,0,1.556,1.31,2.088,2.088,0,0,0,.269-.023A1.55,1.55,0,0,0,275.03,24.444Z" transform="translate(-219.135 0)"/></g></g></svg>