<svg xmlns="http://www.w3.org/2000/svg" width="56" height="56" viewBox="0 0 56 56"><defs><style>.a{fill:#1492e6;}</style></defs><g transform="translate(39.936 53.903)"><path class="a" d="M365.574,492h-.013a1.049,1.049,0,1,0,0,2.1h.013a1.049,1.049,0,1,0,0-2.1Z" transform="translate(-364.512 -492)"/></g><path class="a" d="M55.677,18.469l-7.771-7.716V4.375A4.38,4.38,0,0,0,43.531,0H12.469A4.38,4.38,0,0,0,8.094,4.375V10.7L.32,18.472a1.1,1.1,0,0,0-.32.773V47.3A8.705,8.705,0,0,0,8.7,56H36.086a1.094,1.094,0,0,0,0-2.187H8.7A6.467,6.467,0,0,1,5.213,52.8l2.05-2.05h16.8a1.094,1.094,0,1,0,0-2.187H9.451L22.5,35.513a7.79,7.79,0,0,1,11,0L50.787,52.8A6.466,6.466,0,0,1,47.3,53.813H45.828a1.094,1.094,0,0,0,0,2.188H47.3a8.66,8.66,0,0,0,5.8-2.226,1.1,1.1,0,0,0,.109-.094c.014-.014.027-.03.041-.045A8.67,8.67,0,0,0,56,47.3V19.245A1.094,1.094,0,0,0,55.677,18.469Zm-7.771-4.633,5.45,5.412-5.45,5.45ZM8.094,13.792V24.7L2.641,19.245ZM3.587,51.33a6.474,6.474,0,0,1-1.4-4.025V21.886L17.609,37.308ZM35.049,33.967a9.981,9.981,0,0,0-14.1,0l-1.795,1.795-8.875-8.875V4.375a2.19,2.19,0,0,1,2.188-2.187H43.531a2.19,2.19,0,0,1,2.188,2.188V26.886l-8.875,8.875ZM53.813,47.3a6.474,6.474,0,0,1-1.4,4.025L38.391,37.308,53.813,21.886Z"/><g transform="translate(16.784 10.079)"><path class="a" d="M163.113,92H152.578a1.049,1.049,0,0,0,0,2.1h10.535a1.049,1.049,0,0,0,0-2.1Z" transform="translate(-151.529 -92)"/></g><g transform="translate(32.685 10.079)"><path class="a" d="M300.121,92.307a1.05,1.05,0,1,0,.306.741A1.061,1.061,0,0,0,300.121,92.307Z" transform="translate(-298.33 -92)"/></g><g transform="translate(17.046 17.968)"><path class="a" d="M172.389,164H152.578a1.049,1.049,0,1,0,0,2.1h19.812a1.049,1.049,0,1,0,0-2.1Z" transform="translate(-151.529 -164)"/></g><g transform="translate(17.046 25.856)"><path class="a" d="M172.389,236H152.578a1.049,1.049,0,1,0,0,2.1h19.812a1.049,1.049,0,1,0,0-2.1Z" transform="translate(-151.529 -236)"/></g></svg>